{
    "asset" : {
        "generator" : "Khronos glTF Blender I/O v1.7.33",
        "version" : "2.0"
    },
    "scene" : 0,
    "scenes" : [
        {
            "name" : "Scene",
            "nodes" : [
                0
            ]
        }
    ],
    "nodes" : [
        {
            "mesh" : 0,
            "name" : "Cylinder",
            "rotation" : [
                -0.007681685965508223,
                0,
                0,
                0.9999704957008362
            ],
            "scale" : [
                0.876934289932251,
                0.5028607249259949,
                0.876934289932251
            ],
            "translation" : [
                0.19312021136283875,
                0.3047179579734802,
                -0.07875968515872955
            ]
        }
    ],
    "materials" : [
        {
            "doubleSided" : true,
            "name" : "Gold",
            "pbrMetallicRoughness" : {
                "baseColorFactor" : [
                    0.28314879536628723,
                    0.14126330614089966,
                    0.012983035296201706,
                    1
                ],
                "metallicFactor" : 0,
                "roughnessFactor" : 0.5
            }
        },
        {
            "doubleSided" : true,
            "name" : "White",
            "pbrMetallicRoughness" : {
                "metallicFactor" : 0,
                "roughnessFactor" : 0.5
            }
        }
    ],
    "meshes" : [
        {
            "name" : "Cylinder",
            "primitives" : [
                {
                    "attributes" : {
                        "POSITION" : 0,
                        "NORMAL" : 1,
                        "TEXCOORD_0" : 2
                    },
                    "indices" : 3,
                    "material" : 0
                },
                {
                    "attributes" : {
                        "POSITION" : 4,
                        "NORMAL" : 5,
                        "TEXCOORD_0" : 6
                    },
                    "indices" : 7,
                    "material" : 1
                }
            ]
        }
    ],
    "accessors" : [
        {
            "bufferView" : 0,
            "componentType" : 5126,
            "count" : 6099,
            "max" : [
                0.4575183391571045,
                0.045700374990701675,
                0.74028480052948
            ],
            "min" : [
                -0.4575183391571045,
                -0.6101648211479187,
                -0.49119505286216736
            ],
            "type" : "VEC3"
        },
        {
            "bufferView" : 1,
            "componentType" : 5126,
            "count" : 6099,
            "type" : "VEC3"
        },
        {
            "bufferView" : 2,
            "componentType" : 5126,
            "count" : 6099,
            "type" : "VEC2"
        },
        {
            "bufferView" : 3,
            "componentType" : 5123,
            "count" : 24975,
            "type" : "SCALAR"
        },
        {
            "bufferView" : 4,
            "componentType" : 5126,
            "count" : 984,
            "max" : [
                0.11214396357536316,
                -0.09603187441825867,
                0.49255135655403137
            ],
            "min" : [
                -0.11032365262508392,
                -0.4061736762523651,
                0.35620608925819397
            ],
            "type" : "VEC3"
        },
        {
            "bufferView" : 5,
            "componentType" : 5126,
            "count" : 984,
            "type" : "VEC3"
        },
        {
            "bufferView" : 6,
            "componentType" : 5126,
            "count" : 984,
            "type" : "VEC2"
        },
        {
            "bufferView" : 7,
            "componentType" : 5123,
            "count" : 1704,
            "type" : "SCALAR"
        }
    ],
    "bufferViews" : [
        {
            "buffer" : 0,
            "byteLength" : 73188,
            "byteOffset" : 0
        },
        {
            "buffer" : 0,
            "byteLength" : 73188,
            "byteOffset" : 73188
        },
        {
            "buffer" : 0,
            "byteLength" : 48792,
            "byteOffset" : 146376
        },
        {
            "buffer" : 0,
            "byteLength" : 49950,
            "byteOffset" : 195168
        },
        {
            "buffer" : 0,
            "byteLength" : 11808,
            "byteOffset" : 245120
        },
        {
            "buffer" : 0,
            "byteLength" : 11808,
            "byteOffset" : 256928
        },
        {
            "buffer" : 0,
            "byteLength" : 7872,
            "byteOffset" : 268736
        },
        {
            "buffer" : 0,
            "byteLength" : 3408,
            "byteOffset" : 276608
        }
    ],
    "buffers" : [
        {
            "byteLength" : 280016,
            "uri" : "data:application/octet-stream;base64,"
        }
    ]
}
